<svg xmlns="http://www.w3.org/2000/svg" xmlns:xlink="http://www.w3.org/1999/xlink" width="2000" zoomAndPan="magnify" viewBox="0 0 1500 1499.999933" height="2000" preserveAspectRatio="xMidYMid meet" version="1.0"><defs><g/><clipPath id="0c5b601f77"><path d="M 1122.109375 472.117188 L 1430.359375 472.117188 L 1430.359375 780.367188 L 1122.109375 780.367188 Z M 1122.109375 472.117188 " clip-rule="nonzero"/></clipPath></defs><rect x="-150" width="1800" fill="#ffffff" y="-149.999993" height="1799.99992" fill-opacity="1"/><rect x="-150" width="1800" fill="#3a29a6" y="-149.999993" height="1799.99992" fill-opacity="1"/><g fill="#f2f2f2" fill-opacity="1"><g transform="translate(132.839904, 823.560077)"><g><path d="M 8.796875 -131.125 L 33.796875 -131.125 L 33.796875 -82.71875 C 35.785156 -84.832031 38.890625 -86.707031 43.109375 -88.34375 C 47.335938 -89.988281 51.445312 -90.8125 55.4375 -90.8125 C 63.414062 -90.8125 70.691406 -88.726562 77.265625 -84.5625 C 83.835938 -80.394531 89.117188 -74.789062 93.109375 -67.75 C 97.097656 -60.71875 99.09375 -52.921875 99.09375 -44.359375 C 99.09375 -35.910156 97.15625 -28.191406 93.28125 -21.203125 C 89.40625 -14.222656 84.148438 -8.617188 77.515625 -4.390625 C 70.890625 -0.171875 63.53125 1.9375 55.4375 1.9375 C 51.445312 1.9375 47.335938 1.203125 43.109375 -0.265625 C 38.890625 -1.734375 35.785156 -3.757812 33.796875 -6.34375 L 33.796875 0 L 8.796875 0 Z M 52.96875 -22.875 C 58.71875 -22.875 63.617188 -24.867188 67.671875 -28.859375 C 71.722656 -32.847656 73.75 -38.015625 73.75 -44.359375 C 73.75 -50.578125 71.722656 -55.707031 67.671875 -59.75 C 63.617188 -63.800781 58.71875 -65.828125 52.96875 -65.828125 C 47.226562 -65.828125 42.421875 -63.800781 38.546875 -59.75 C 34.671875 -55.707031 32.734375 -50.578125 32.734375 -44.359375 C 32.734375 -38.015625 34.671875 -32.847656 38.546875 -28.859375 C 42.421875 -24.867188 47.226562 -22.875 52.96875 -22.875 Z M 52.96875 -22.875 "/></g></g></g><g fill="#f2f2f2" fill-opacity="1"><g transform="translate(237.027308, 823.560077)"><g><path d="M 59.65625 -90.46875 L 59.65625 -64.59375 C 57.3125 -65.414062 54.675781 -65.828125 51.75 -65.828125 C 46.9375 -65.828125 42.738281 -64.035156 39.15625 -60.453125 C 35.582031 -56.878906 33.796875 -51.515625 33.796875 -44.359375 L 33.796875 0 L 8.796875 0 L 8.796875 -88.875 L 33.796875 -88.875 L 33.796875 -82.71875 C 36.492188 -85.65625 39.601562 -87.738281 43.125 -88.96875 C 46.644531 -90.195312 50.101562 -90.8125 53.5 -90.8125 C 54.5625 -90.8125 55.5625 -90.8125 56.5 -90.8125 C 57.4375 -90.8125 58.488281 -90.695312 59.65625 -90.46875 Z M 59.65625 -90.46875 "/></g></g></g><g fill="#f2f2f2" fill-opacity="1"><g transform="translate(298.976575, 823.560077)"><g><path d="M 70.40625 -88.875 L 95.390625 -88.875 L 95.390625 0 L 70.40625 0 L 70.40625 -6.34375 C 68.519531 -3.757812 65.460938 -1.734375 61.234375 -0.265625 C 57.015625 1.203125 52.851562 1.9375 48.75 1.9375 C 40.65625 1.9375 33.320312 -0.171875 26.75 -4.390625 C 20.175781 -8.617188 14.925781 -14.222656 11 -21.203125 C 7.070312 -28.191406 5.109375 -35.910156 5.109375 -44.359375 C 5.109375 -52.921875 7.101562 -60.71875 11.09375 -67.75 C 15.082031 -74.789062 20.390625 -80.394531 27.015625 -84.5625 C 33.640625 -88.726562 40.882812 -90.8125 48.75 -90.8125 C 52.738281 -90.8125 56.875 -89.988281 61.15625 -88.34375 C 65.4375 -86.707031 68.519531 -84.832031 70.40625 -82.71875 Z M 51.21875 -22.875 C 57.082031 -22.875 61.921875 -24.867188 65.734375 -28.859375 C 69.546875 -32.847656 71.453125 -38.015625 71.453125 -44.359375 C 71.453125 -50.578125 69.546875 -55.707031 65.734375 -59.75 C 61.921875 -63.800781 57.082031 -65.828125 51.21875 -65.828125 C 45.46875 -65.828125 40.566406 -63.800781 36.515625 -59.75 C 32.472656 -55.707031 30.453125 -50.578125 30.453125 -44.359375 C 30.453125 -38.015625 32.472656 -32.847656 36.515625 -28.859375 C 40.566406 -24.867188 45.46875 -22.875 51.21875 -22.875 Z M 51.21875 -22.875 "/></g></g></g><g fill="#f2f2f2" fill-opacity="1"><g transform="translate(403.163979, 823.560077)"><g><path d="M 98.390625 -44.359375 L 98.390625 0 L 73.5625 0 L 73.5625 -44.359375 C 73.5625 -51.515625 71.769531 -56.878906 68.1875 -60.453125 C 64.613281 -64.035156 60.25 -65.828125 55.09375 -65.828125 C 51.445312 -65.828125 47.984375 -64.914062 44.703125 -63.09375 C 41.421875 -61.28125 38.78125 -58.757812 36.78125 -55.53125 C 34.789062 -52.300781 33.796875 -48.578125 33.796875 -44.359375 L 33.796875 0 L 8.796875 0 L 8.796875 -131.125 L 33.796875 -131.125 L 33.796875 -82.546875 C 36.140625 -85.472656 39.628906 -87.582031 44.265625 -88.875 C 48.898438 -90.164062 53.210938 -90.8125 57.203125 -90.8125 C 65.296875 -90.8125 72.453125 -88.726562 78.671875 -84.5625 C 84.890625 -80.394531 89.726562 -74.789062 93.1875 -67.75 C 96.65625 -60.71875 98.390625 -52.921875 98.390625 -44.359375 Z M 98.390625 -44.359375 "/></g></g></g><g fill="#f2f2f2" fill-opacity="1"><g transform="translate(509.111312, 823.560077)"><g><path d="M 95.5625 -44.359375 L 95.5625 0 L 70.578125 0 L 70.578125 -44.359375 C 70.578125 -51.984375 68.785156 -57.46875 65.203125 -60.8125 C 61.628906 -64.15625 57.023438 -65.828125 51.390625 -65.828125 C 48.335938 -65.828125 45.460938 -64.859375 42.765625 -62.921875 C 40.066406 -60.984375 37.894531 -58.398438 36.25 -55.171875 C 34.613281 -51.953125 33.796875 -48.347656 33.796875 -44.359375 L 33.796875 0 L 8.796875 0 L 8.796875 -88.875 L 33.796875 -88.875 L 33.796875 -82.71875 C 35.785156 -85.1875 38.953125 -87.148438 43.296875 -88.609375 C 47.640625 -90.078125 51.742188 -90.8125 55.609375 -90.8125 C 62.179688 -90.8125 68.195312 -89.488281 73.65625 -86.84375 C 79.113281 -84.207031 83.132812 -80.835938 85.71875 -76.734375 C 88.53125 -80.492188 91.8125 -83.398438 95.5625 -85.453125 C 99.320312 -87.503906 103.132812 -88.910156 107 -89.671875 C 110.875 -90.429688 114.335938 -90.8125 117.390625 -90.8125 C 126.546875 -90.8125 134.113281 -88.726562 140.09375 -84.5625 C 146.082031 -80.394531 150.539062 -74.789062 153.46875 -67.75 C 156.40625 -60.71875 157.875 -52.921875 157.875 -44.359375 L 157.875 0 L 133.0625 0 L 133.0625 -44.359375 C 133.0625 -51.160156 131.269531 -56.4375 127.6875 -60.1875 C 124.101562 -63.945312 119.789062 -65.828125 114.75 -65.828125 C 109.351562 -65.828125 104.804688 -63.710938 101.109375 -59.484375 C 97.410156 -55.265625 95.5625 -50.222656 95.5625 -44.359375 Z M 95.5625 -44.359375 "/></g></g></g><g fill="#f2f2f2" fill-opacity="1"><g transform="translate(674.544025, 823.560077)"><g><path d="M 70.40625 -88.875 L 95.390625 -88.875 L 95.390625 0 L 70.40625 0 L 70.40625 -6.34375 C 68.519531 -3.757812 65.460938 -1.734375 61.234375 -0.265625 C 57.015625 1.203125 52.851562 1.9375 48.75 1.9375 C 40.65625 1.9375 33.320312 -0.171875 26.75 -4.390625 C 20.175781 -8.617188 14.925781 -14.222656 11 -21.203125 C 7.070312 -28.191406 5.109375 -35.910156 5.109375 -44.359375 C 5.109375 -52.921875 7.101562 -60.71875 11.09375 -67.75 C 15.082031 -74.789062 20.390625 -80.394531 27.015625 -84.5625 C 33.640625 -88.726562 40.882812 -90.8125 48.75 -90.8125 C 52.738281 -90.8125 56.875 -89.988281 61.15625 -88.34375 C 65.4375 -86.707031 68.519531 -84.832031 70.40625 -82.71875 Z M 51.21875 -22.875 C 57.082031 -22.875 61.921875 -24.867188 65.734375 -28.859375 C 69.546875 -32.847656 71.453125 -38.015625 71.453125 -44.359375 C 71.453125 -50.578125 69.546875 -55.707031 65.734375 -59.75 C 61.921875 -63.800781 57.082031 -65.828125 51.21875 -65.828125 C 45.46875 -65.828125 40.566406 -63.800781 36.515625 -59.75 C 32.472656 -55.707031 30.453125 -50.578125 30.453125 -44.359375 C 30.453125 -38.015625 32.472656 -32.847656 36.515625 -28.859375 C 40.566406 -24.867188 45.46875 -22.875 51.21875 -22.875 Z M 51.21875 -22.875 "/></g></g></g><g fill="#f2f2f2" fill-opacity="1"><g transform="translate(778.731394, 823.560077)"><g><path d="M 33.796875 42.421875 L 8.796875 42.421875 L 8.796875 -88.875 L 33.796875 -88.875 L 33.796875 -82.71875 C 35.785156 -84.832031 38.890625 -86.707031 43.109375 -88.34375 C 47.335938 -89.988281 51.445312 -90.8125 55.4375 -90.8125 C 63.65625 -90.8125 71.046875 -88.726562 77.609375 -84.5625 C 84.179688 -80.394531 89.40625 -74.820312 93.28125 -67.84375 C 97.15625 -60.863281 99.09375 -53.148438 99.09375 -44.703125 C 99.09375 -36.140625 97.097656 -28.335938 93.109375 -21.296875 C 89.117188 -14.253906 83.78125 -8.617188 77.09375 -4.390625 C 70.40625 -0.171875 63.007812 1.9375 54.90625 1.9375 C 51.269531 1.9375 47.425781 1.265625 43.375 -0.078125 C 39.332031 -1.429688 36.140625 -3.519531 33.796875 -6.34375 Z M 52.96875 -65.828125 C 47.226562 -65.828125 42.421875 -63.832031 38.546875 -59.84375 C 34.671875 -55.851562 32.734375 -50.75 32.734375 -44.53125 C 32.734375 -38.195312 34.671875 -33.003906 38.546875 -28.953125 C 42.421875 -24.898438 47.226562 -22.875 52.96875 -22.875 C 58.71875 -22.875 63.617188 -24.898438 67.671875 -28.953125 C 71.722656 -33.003906 73.75 -38.195312 73.75 -44.53125 C 73.75 -50.75 71.722656 -55.851562 67.671875 -59.84375 C 63.617188 -63.832031 58.71875 -65.828125 52.96875 -65.828125 Z M 52.96875 -65.828125 "/></g></g></g><g fill="#f2f2f2" fill-opacity="1"><g transform="translate(882.918809, 823.560077)"><g><path d="M 7.5625 -42.59375 L 7.5625 -88.875 L 32.5625 -88.875 L 32.5625 -44.703125 C 32.5625 -38.253906 34.347656 -33.003906 37.921875 -28.953125 C 41.503906 -24.898438 45.816406 -22.875 50.859375 -22.875 C 54.617188 -22.875 58.109375 -23.546875 61.328125 -24.890625 C 64.554688 -26.242188 67.195312 -28.535156 69.25 -31.765625 C 71.3125 -34.992188 72.34375 -39.304688 72.34375 -44.703125 L 72.34375 -88.875 L 97.15625 -88.875 L 97.15625 0 L 72.34375 0 L 72.34375 -6.34375 C 69.757812 -3.519531 66.03125 -1.429688 61.15625 -0.078125 C 56.289062 1.265625 51.742188 1.9375 47.515625 1.9375 C 39.773438 1.9375 32.882812 -0.0820312 26.84375 -4.125 C 20.800781 -8.175781 16.078125 -13.578125 12.671875 -20.328125 C 9.265625 -27.078125 7.5625 -34.5 7.5625 -42.59375 Z M 7.5625 -42.59375 "/></g></g></g><g fill="#f2f2f2" fill-opacity="1"><g transform="translate(988.866142, 823.560077)"><g><path d="M 60.890625 -65.828125 L 39.78125 -65.828125 L 39.78125 -37.484375 C 39.78125 -32.441406 41.773438 -28.742188 45.765625 -26.390625 C 49.753906 -24.046875 54.625 -22.875 60.375 -22.875 L 60.375 1.9375 C 51.570312 1.9375 43.738281 0.320312 36.875 -2.90625 C 30.007812 -6.132812 24.609375 -10.679688 20.671875 -16.546875 C 16.742188 -22.410156 14.78125 -29.15625 14.78125 -36.78125 L 14.78125 -65.828125 L 1.40625 -65.828125 L 1.40625 -88.875 L 14.78125 -88.875 L 14.78125 -100.5 L 39.78125 -118.625 L 39.78125 -88.875 L 60.890625 -88.875 Z M 60.890625 -65.828125 "/></g></g></g><g fill="#f2f2f2" fill-opacity="1"><g transform="translate(1052.39934, 823.560077)"><g><path d="M 59.65625 -90.46875 L 59.65625 -64.59375 C 57.3125 -65.414062 54.675781 -65.828125 51.75 -65.828125 C 46.9375 -65.828125 42.738281 -64.035156 39.15625 -60.453125 C 35.582031 -56.878906 33.796875 -51.515625 33.796875 -44.359375 L 33.796875 0 L 8.796875 0 L 8.796875 -88.875 L 33.796875 -88.875 L 33.796875 -82.71875 C 36.492188 -85.65625 39.601562 -87.738281 43.125 -88.96875 C 46.644531 -90.195312 50.101562 -90.8125 53.5 -90.8125 C 54.5625 -90.8125 55.5625 -90.8125 56.5 -90.8125 C 57.4375 -90.8125 58.488281 -90.695312 59.65625 -90.46875 Z M 59.65625 -90.46875 "/></g></g></g><g fill="#f2f2f2" fill-opacity="1"><g transform="translate(1114.348584, 823.560077)"><g><path d="M 70.40625 -88.875 L 95.390625 -88.875 L 95.390625 0 L 70.40625 0 L 70.40625 -6.34375 C 68.519531 -3.757812 65.460938 -1.734375 61.234375 -0.265625 C 57.015625 1.203125 52.851562 1.9375 48.75 1.9375 C 40.65625 1.9375 33.320312 -0.171875 26.75 -4.390625 C 20.175781 -8.617188 14.925781 -14.222656 11 -21.203125 C 7.070312 -28.191406 5.109375 -35.910156 5.109375 -44.359375 C 5.109375 -52.921875 7.101562 -60.71875 11.09375 -67.75 C 15.082031 -74.789062 20.390625 -80.394531 27.015625 -84.5625 C 33.640625 -88.726562 40.882812 -90.8125 48.75 -90.8125 C 52.738281 -90.8125 56.875 -89.988281 61.15625 -88.34375 C 65.4375 -86.707031 68.519531 -84.832031 70.40625 -82.71875 Z M 51.21875 -22.875 C 57.082031 -22.875 61.921875 -24.867188 65.734375 -28.859375 C 69.546875 -32.847656 71.453125 -38.015625 71.453125 -44.359375 C 71.453125 -50.578125 69.546875 -55.707031 65.734375 -59.75 C 61.921875 -63.800781 57.082031 -65.828125 51.21875 -65.828125 C 45.46875 -65.828125 40.566406 -63.800781 36.515625 -59.75 C 32.472656 -55.707031 30.453125 -50.578125 30.453125 -44.359375 C 30.453125 -38.015625 32.472656 -32.847656 36.515625 -28.859375 C 40.566406 -24.867188 45.46875 -22.875 51.21875 -22.875 Z M 51.21875 -22.875 "/></g></g></g><g clip-path="url(#0c5b601f77)"><path fill="#f26444" d="M 1397.972656 640.808594 L 1430.367188 640.808594 L 1430.367188 705.597656 L 1378.25 705.597656 C 1373.742188 705.597656 1369.824219 707.230469 1366.625 710.429688 L 1340.566406 736.488281 C 1337.367188 739.6875 1335.734375 743.605469 1335.734375 748.113281 L 1335.734375 780.050781 L 1291.191406 780.050781 L 1291.191406 735.507812 L 1323.128906 735.507812 C 1327.636719 735.507812 1331.554688 733.875 1334.753906 730.675781 L 1360.8125 704.617188 C 1364.011719 701.417969 1365.644531 697.5 1365.644531 692.992188 L 1365.644531 640.875 Z M 1229.277344 472.117188 L 1261.671875 472.117188 L 1261.671875 536.902344 L 1209.554688 536.902344 C 1205.050781 536.902344 1201.128906 538.535156 1197.929688 541.734375 L 1171.871094 567.792969 C 1168.671875 570.992188 1167.039062 574.914062 1167.039062 579.417969 L 1167.039062 611.355469 L 1122.433594 611.355469 L 1122.433594 566.75 L 1154.371094 566.75 C 1158.875 566.75 1162.792969 565.117188 1165.996094 561.917969 L 1192.050781 535.859375 C 1195.253906 532.65625 1196.886719 528.738281 1196.886719 524.234375 L 1196.886719 472.117188 Z M 1388.828125 472.117188 L 1430.300781 472.117188 L 1430.300781 555.058594 L 1363.488281 555.058594 C 1357.675781 555.058594 1352.714844 557.148438 1348.597656 561.199219 L 1315.160156 594.636719 C 1311.046875 598.75 1309.023438 603.714844 1309.023438 609.527344 L 1309.023438 650.476562 L 1251.941406 650.476562 L 1251.941406 593.394531 L 1292.890625 593.394531 C 1298.703125 593.394531 1303.667969 591.304688 1307.78125 587.257812 L 1341.21875 553.816406 C 1345.332031 549.703125 1347.359375 544.738281 1347.359375 538.925781 L 1347.359375 472.117188 Z M 1388.828125 472.117188 " fill-opacity="1" fill-rule="evenodd"/></g><g fill="#f2f2f2" fill-opacity="1"><g transform="translate(904.861299, 987.459975)"><g><path d="M 41.515625 -44.875 L 27.125 -44.875 L 27.125 -25.5625 C 27.125 -22.125 28.484375 -19.601562 31.203125 -18 C 33.921875 -16.394531 37.238281 -15.59375 41.15625 -15.59375 L 41.15625 1.3125 C 35.15625 1.3125 29.816406 0.210938 25.140625 -1.984375 C 20.460938 -4.179688 16.78125 -7.28125 14.09375 -11.28125 C 11.414062 -15.28125 10.078125 -19.878906 10.078125 -25.078125 L 10.078125 -44.875 L 0.953125 -44.875 L 0.953125 -60.59375 L 10.078125 -60.59375 L 10.078125 -68.515625 L 27.125 -80.875 L 27.125 -60.59375 L 41.515625 -60.59375 Z M 41.515625 -44.875 "/></g></g></g><g fill="#f2f2f2" fill-opacity="1"><g transform="translate(948.181314, 987.459975)"><g><path d="M 49.4375 -21.71875 L 63 -11.28125 C 60.4375 -7.4375 56.710938 -4.375 51.828125 -2.09375 C 46.953125 0.175781 41.796875 1.3125 36.359375 1.3125 C 31.796875 1.3125 27.535156 0.492188 23.578125 -1.140625 C 19.617188 -2.773438 16.117188 -5.050781 13.078125 -7.96875 C 10.035156 -10.894531 7.675781 -14.257812 6 -18.0625 C 4.320312 -21.863281 3.484375 -25.921875 3.484375 -30.234375 C 3.484375 -36.078125 4.898438 -41.398438 7.734375 -46.203125 C 10.578125 -51.003906 14.378906 -54.820312 19.140625 -57.65625 C 23.898438 -60.5 29.160156 -61.921875 34.921875 -61.921875 C 39.960938 -61.921875 44.519531 -60.921875 48.59375 -58.921875 C 52.675781 -56.921875 56.15625 -54.300781 59.03125 -51.0625 C 61.914062 -47.820312 63.957031 -44.320312 65.15625 -40.5625 L 31.3125 -16.3125 C 32.113281 -16 32.9375 -15.800781 33.78125 -15.71875 C 34.625 -15.632812 35.484375 -15.59375 36.359375 -15.59375 C 38.921875 -15.59375 41.398438 -16.070312 43.796875 -17.03125 C 46.203125 -18 48.082031 -19.5625 49.4375 -21.71875 Z M 20.765625 -30.234375 C 20.765625 -28.640625 20.921875 -27.320312 21.234375 -26.28125 L 43.3125 -42 C 42.113281 -42.875 40.8125 -43.570312 39.40625 -44.09375 C 38.007812 -44.613281 36.515625 -44.875 34.921875 -44.875 C 31.003906 -44.875 27.664062 -43.492188 24.90625 -40.734375 C 22.144531 -37.972656 20.765625 -34.472656 20.765625 -30.234375 Z M 20.765625 -30.234375 "/></g></g></g><g fill="#f2f2f2" fill-opacity="1"><g transform="translate(1016.821346, 987.459975)"><g><path d="M 49.3125 -27.84375 L 66.84375 -27.84375 C 66.4375 -22.476562 64.753906 -17.578125 61.796875 -13.140625 C 58.835938 -8.703125 55.015625 -5.179688 50.328125 -2.578125 C 45.648438 0.0117188 40.515625 1.3125 34.921875 1.3125 C 30.597656 1.3125 26.535156 0.492188 22.734375 -1.140625 C 18.941406 -2.773438 15.601562 -5.050781 12.71875 -7.96875 C 9.84375 -10.894531 7.582031 -14.257812 5.9375 -18.0625 C 4.300781 -21.863281 3.484375 -25.921875 3.484375 -30.234375 C 3.484375 -36.078125 4.898438 -41.398438 7.734375 -46.203125 C 10.578125 -51.003906 14.378906 -54.820312 19.140625 -57.65625 C 23.898438 -60.5 29.160156 -61.921875 34.921875 -61.921875 C 39.878906 -61.921875 44.515625 -60.835938 48.828125 -58.671875 C 53.148438 -56.515625 56.796875 -53.640625 59.765625 -50.046875 L 46.203125 -39.484375 C 44.679688 -41.484375 42.941406 -42.878906 40.984375 -43.671875 C 39.023438 -44.472656 37.003906 -44.875 34.921875 -44.875 C 31.003906 -44.875 27.664062 -43.492188 24.90625 -40.734375 C 22.144531 -37.972656 20.765625 -34.472656 20.765625 -30.234375 C 20.765625 -25.921875 22.144531 -22.398438 24.90625 -19.671875 C 27.664062 -16.953125 31.003906 -15.59375 34.921875 -15.59375 C 38.679688 -15.59375 41.878906 -16.710938 44.515625 -18.953125 C 47.160156 -21.191406 48.757812 -24.15625 49.3125 -27.84375 Z M 49.3125 -27.84375 "/></g></g></g><g fill="#f2f2f2" fill-opacity="1"><g transform="translate(1087.021379, 987.459975)"><g><path d="M 67.078125 -30.234375 L 67.078125 0 L 50.15625 0 L 50.15625 -30.234375 C 50.15625 -35.117188 48.9375 -38.78125 46.5 -41.21875 C 44.0625 -43.65625 41.082031 -44.875 37.5625 -44.875 C 35.082031 -44.875 32.722656 -44.253906 30.484375 -43.015625 C 28.242188 -41.773438 26.441406 -40.054688 25.078125 -37.859375 C 23.722656 -35.660156 23.046875 -33.117188 23.046875 -30.234375 L 23.046875 0 L 6 0 L 6 -89.40625 L 23.046875 -89.40625 L 23.046875 -56.28125 C 24.640625 -58.28125 27.015625 -59.71875 30.171875 -60.59375 C 33.335938 -61.476562 36.28125 -61.921875 39 -61.921875 C 44.519531 -61.921875 49.398438 -60.5 53.640625 -57.65625 C 57.878906 -54.820312 61.175781 -51.003906 63.53125 -46.203125 C 65.894531 -41.398438 67.078125 -36.078125 67.078125 -30.234375 Z M 67.078125 -30.234375 "/></g></g></g><g fill="#f2f2f2" fill-opacity="1"><g transform="translate(1159.263625, 987.459975)"><g/></g></g></svg>